<mxfile host="app.diagrams.net" agent="Mozilla/5.0 (Windows NT 10.0; Win64; x64) AppleWebKit/537.36 (KHTML, like Gecko) Chrome/131.0.0.0 Safari/537.36" version="26.0.1">
  <diagram name="Page-1" id="03018318-947c-dd8e-b7a3-06fadd420f32">
    <mxGraphModel dx="3354" dy="1258" grid="1" gridSize="10" guides="1" tooltips="1" connect="1" arrows="1" fold="1" page="1" pageScale="1" pageWidth="1100" pageHeight="850" background="none" math="0" shadow="0">
      <root>
        <mxCell id="0" />
        <mxCell id="1" parent="0" />
        <mxCell id="677b7b8949515195-1" value="" style="whiteSpace=wrap;html=1;rounded=0;shadow=0;labelBackgroundColor=none;strokeColor=#000000;strokeWidth=1;fillColor=none;fontFamily=Verdana;fontSize=12;fontColor=#000000;align=center;comic=1;" parent="1" vertex="1">
          <mxGeometry x="20" y="60" width="1060" height="550" as="geometry" />
        </mxCell>
        <mxCell id="vkX5BvwNz0js688uhqi4-1" value="&lt;font style=&quot;font-size: 18px;&quot;&gt;fourthwallacademy.com/Dashboard&lt;/font&gt;" style="html=1;strokeWidth=1;shadow=0;dashed=0;shape=mxgraph.ios7ui.url;fillColor=#e0e0e0;strokeColor=#c0c0c0;buttonText=;strokeColor2=#222222;fontColor=#222222;fontSize=8;spacingTop=2;align=center;whiteSpace=wrap;" parent="1" vertex="1">
          <mxGeometry x="25" y="10" width="1050" height="42.5" as="geometry" />
        </mxCell>
        <mxCell id="GPvEqlQ-Z8Nt9TGlk1Vn-2" value="Grades" style="shape=table;startSize=30;container=1;collapsible=0;childLayout=tableLayout;strokeColor=#36393d;fontSize=20;fontStyle=1;fillColor=#cce5ff;" parent="1" vertex="1">
          <mxGeometry x="40" y="70" width="240" height="100" as="geometry" />
        </mxCell>
        <mxCell id="GPvEqlQ-Z8Nt9TGlk1Vn-3" value="" style="shape=tableRow;horizontal=0;startSize=0;swimlaneHead=0;swimlaneBody=0;strokeColor=inherit;top=0;left=0;bottom=0;right=0;collapsible=0;dropTarget=0;fillColor=none;points=[[0,0.5],[1,0.5]];portConstraint=eastwest;fontSize=16;" parent="GPvEqlQ-Z8Nt9TGlk1Vn-2" vertex="1">
          <mxGeometry y="30" width="240" height="35" as="geometry" />
        </mxCell>
        <mxCell id="GPvEqlQ-Z8Nt9TGlk1Vn-4" value="&lt;b&gt;Min&lt;/b&gt;" style="shape=partialRectangle;html=1;whiteSpace=wrap;connectable=0;strokeColor=inherit;overflow=hidden;fillColor=none;top=0;left=0;bottom=0;right=0;pointerEvents=1;fontSize=16;" parent="GPvEqlQ-Z8Nt9TGlk1Vn-3" vertex="1">
          <mxGeometry width="79" height="35" as="geometry">
            <mxRectangle width="79" height="35" as="alternateBounds" />
          </mxGeometry>
        </mxCell>
        <mxCell id="GPvEqlQ-Z8Nt9TGlk1Vn-5" value="&lt;b&gt;Avg&lt;/b&gt;" style="shape=partialRectangle;html=1;whiteSpace=wrap;connectable=0;strokeColor=inherit;overflow=hidden;fillColor=none;top=0;left=0;bottom=0;right=0;pointerEvents=1;fontSize=16;" parent="GPvEqlQ-Z8Nt9TGlk1Vn-3" vertex="1">
          <mxGeometry x="79" width="82" height="35" as="geometry">
            <mxRectangle width="82" height="35" as="alternateBounds" />
          </mxGeometry>
        </mxCell>
        <mxCell id="GPvEqlQ-Z8Nt9TGlk1Vn-6" value="&lt;b&gt;Max&lt;/b&gt;" style="shape=partialRectangle;html=1;whiteSpace=wrap;connectable=0;strokeColor=inherit;overflow=hidden;fillColor=none;top=0;left=0;bottom=0;right=0;pointerEvents=1;fontSize=16;" parent="GPvEqlQ-Z8Nt9TGlk1Vn-3" vertex="1">
          <mxGeometry x="161" width="79" height="35" as="geometry">
            <mxRectangle width="79" height="35" as="alternateBounds" />
          </mxGeometry>
        </mxCell>
        <mxCell id="GPvEqlQ-Z8Nt9TGlk1Vn-15" style="shape=tableRow;horizontal=0;startSize=0;swimlaneHead=0;swimlaneBody=0;strokeColor=inherit;top=0;left=0;bottom=0;right=0;collapsible=0;dropTarget=0;fillColor=none;points=[[0,0.5],[1,0.5]];portConstraint=eastwest;fontSize=16;" parent="GPvEqlQ-Z8Nt9TGlk1Vn-2" vertex="1">
          <mxGeometry y="65" width="240" height="35" as="geometry" />
        </mxCell>
        <mxCell id="GPvEqlQ-Z8Nt9TGlk1Vn-16" value="60" style="shape=partialRectangle;html=1;whiteSpace=wrap;connectable=0;strokeColor=inherit;overflow=hidden;fillColor=none;top=0;left=0;bottom=0;right=0;pointerEvents=1;fontSize=16;" parent="GPvEqlQ-Z8Nt9TGlk1Vn-15" vertex="1">
          <mxGeometry width="79" height="35" as="geometry">
            <mxRectangle width="79" height="35" as="alternateBounds" />
          </mxGeometry>
        </mxCell>
        <mxCell id="GPvEqlQ-Z8Nt9TGlk1Vn-17" value="82" style="shape=partialRectangle;html=1;whiteSpace=wrap;connectable=0;strokeColor=inherit;overflow=hidden;fillColor=none;top=0;left=0;bottom=0;right=0;pointerEvents=1;fontSize=16;" parent="GPvEqlQ-Z8Nt9TGlk1Vn-15" vertex="1">
          <mxGeometry x="79" width="82" height="35" as="geometry">
            <mxRectangle width="82" height="35" as="alternateBounds" />
          </mxGeometry>
        </mxCell>
        <mxCell id="GPvEqlQ-Z8Nt9TGlk1Vn-18" value="98" style="shape=partialRectangle;html=1;whiteSpace=wrap;connectable=0;strokeColor=inherit;overflow=hidden;fillColor=none;top=0;left=0;bottom=0;right=0;pointerEvents=1;fontSize=16;" parent="GPvEqlQ-Z8Nt9TGlk1Vn-15" vertex="1">
          <mxGeometry x="161" width="79" height="35" as="geometry">
            <mxRectangle width="79" height="35" as="alternateBounds" />
          </mxGeometry>
        </mxCell>
        <mxCell id="GPvEqlQ-Z8Nt9TGlk1Vn-76" value="Details" style="html=1;shadow=0;dashed=0;shape=mxgraph.bootstrap.rrect;rSize=5;strokeColor=none;strokeWidth=1;fillColor=none;fontColor=#0085FC;whiteSpace=wrap;align=center;verticalAlign=middle;spacingLeft=0;fontStyle=0;fontSize=16;spacing=5;" parent="1" vertex="1">
          <mxGeometry x="280" y="130" width="60" height="40" as="geometry" />
        </mxCell>
        <mxCell id="GPvEqlQ-Z8Nt9TGlk1Vn-133" value="Details" style="html=1;shadow=0;dashed=0;shape=mxgraph.bootstrap.rrect;rSize=5;strokeColor=none;strokeWidth=1;fillColor=none;fontColor=#0085FC;whiteSpace=wrap;align=center;verticalAlign=middle;spacingLeft=0;fontStyle=0;fontSize=16;spacing=5;" parent="1" vertex="1">
          <mxGeometry x="510" y="410" width="60" height="40" as="geometry" />
        </mxCell>
        <mxCell id="GPvEqlQ-Z8Nt9TGlk1Vn-134" value="Powers" style="shape=table;startSize=60;container=1;collapsible=0;childLayout=tableLayout;strokeColor=#36393d;fontSize=20;fontStyle=1;fillColor=#cce5ff;" parent="1" vertex="1">
          <mxGeometry x="40" y="330" width="470" height="34" as="geometry" />
        </mxCell>
        <mxCell id="GPvEqlQ-Z8Nt9TGlk1Vn-135" value="" style="shape=tableRow;horizontal=0;startSize=0;swimlaneHead=0;swimlaneBody=0;strokeColor=inherit;top=0;left=0;bottom=0;right=0;collapsible=0;dropTarget=0;fillColor=none;points=[[0,0.5],[1,0.5]];portConstraint=eastwest;fontSize=16;" parent="GPvEqlQ-Z8Nt9TGlk1Vn-134" vertex="1" visible="0">
          <mxGeometry y="30" width="470" height="30" as="geometry" />
        </mxCell>
        <mxCell id="GPvEqlQ-Z8Nt9TGlk1Vn-136" value="&lt;b&gt;Power&lt;/b&gt;" style="shape=partialRectangle;html=1;whiteSpace=wrap;connectable=0;strokeColor=#36393d;overflow=hidden;fillColor=#cce5ff;top=0;left=0;bottom=0;right=0;pointerEvents=1;fontSize=16;" parent="GPvEqlQ-Z8Nt9TGlk1Vn-135" vertex="1">
          <mxGeometry width="20" height="30" as="geometry">
            <mxRectangle width="20" height="30" as="alternateBounds" />
          </mxGeometry>
        </mxCell>
        <mxCell id="GPvEqlQ-Z8Nt9TGlk1Vn-137" value="&lt;b&gt;Min Rating&lt;/b&gt;" style="shape=partialRectangle;html=1;whiteSpace=wrap;connectable=0;strokeColor=#36393d;overflow=hidden;fillColor=#cce5ff;top=0;left=0;bottom=0;right=0;pointerEvents=1;fontSize=16;" parent="GPvEqlQ-Z8Nt9TGlk1Vn-135" vertex="1">
          <mxGeometry x="20" width="260" height="30" as="geometry">
            <mxRectangle width="260" height="30" as="alternateBounds" />
          </mxGeometry>
        </mxCell>
        <mxCell id="GPvEqlQ-Z8Nt9TGlk1Vn-138" value="&lt;b&gt;Avg Rating&lt;/b&gt;" style="shape=partialRectangle;html=1;whiteSpace=wrap;connectable=0;strokeColor=#36393d;overflow=hidden;fillColor=#cce5ff;top=0;left=0;bottom=0;right=0;pointerEvents=1;fontSize=16;" parent="GPvEqlQ-Z8Nt9TGlk1Vn-135" vertex="1">
          <mxGeometry x="280" width="100" height="30" as="geometry">
            <mxRectangle width="100" height="30" as="alternateBounds" />
          </mxGeometry>
        </mxCell>
        <mxCell id="GPvEqlQ-Z8Nt9TGlk1Vn-139" value="&lt;b&gt;Max Rating&lt;/b&gt;" style="shape=partialRectangle;html=1;whiteSpace=wrap;connectable=0;strokeColor=#36393d;overflow=hidden;fillColor=#cce5ff;top=0;left=0;bottom=0;right=0;pointerEvents=1;fontSize=16;" parent="GPvEqlQ-Z8Nt9TGlk1Vn-135" vertex="1">
          <mxGeometry x="380" width="90" height="30" as="geometry">
            <mxRectangle width="90" height="30" as="alternateBounds" />
          </mxGeometry>
        </mxCell>
        <mxCell id="GPvEqlQ-Z8Nt9TGlk1Vn-167" value="Details" style="html=1;shadow=0;dashed=0;shape=mxgraph.bootstrap.rrect;rSize=5;strokeColor=none;strokeWidth=1;fillColor=none;fontColor=#0085FC;whiteSpace=wrap;align=center;verticalAlign=middle;spacingLeft=0;fontStyle=0;fontSize=16;spacing=5;" parent="1" vertex="1">
          <mxGeometry x="510" y="550" width="60" height="40" as="geometry" />
        </mxCell>
        <mxCell id="GPvEqlQ-Z8Nt9TGlk1Vn-177" value="Enrollments" style="shape=table;startSize=30;container=1;collapsible=0;childLayout=tableLayout;strokeColor=#36393d;fontSize=20;fontStyle=1;fillColor=#cce5ff;" parent="1" vertex="1">
          <mxGeometry x="40" y="200" width="470" height="30" as="geometry" />
        </mxCell>
        <mxCell id="GPvEqlQ-Z8Nt9TGlk1Vn-178" value="" style="shape=tableRow;horizontal=0;startSize=0;swimlaneHead=0;swimlaneBody=0;strokeColor=inherit;top=0;left=0;bottom=0;right=0;collapsible=0;dropTarget=0;fillColor=none;points=[[0,0.5],[1,0.5]];portConstraint=eastwest;fontSize=16;" parent="GPvEqlQ-Z8Nt9TGlk1Vn-177" vertex="1" visible="0">
          <mxGeometry y="30" width="500" height="60" as="geometry" />
        </mxCell>
        <mxCell id="GPvEqlQ-Z8Nt9TGlk1Vn-179" value="" style="shape=partialRectangle;html=1;whiteSpace=wrap;connectable=0;strokeColor=inherit;overflow=hidden;fillColor=none;top=0;left=0;bottom=0;right=0;pointerEvents=1;fontSize=16;" parent="GPvEqlQ-Z8Nt9TGlk1Vn-178" vertex="1">
          <mxGeometry width="167" height="60" as="geometry">
            <mxRectangle width="167" height="60" as="alternateBounds" />
          </mxGeometry>
        </mxCell>
        <mxCell id="GPvEqlQ-Z8Nt9TGlk1Vn-180" value="" style="shape=partialRectangle;html=1;whiteSpace=wrap;connectable=0;strokeColor=inherit;overflow=hidden;fillColor=none;top=0;left=0;bottom=0;right=0;pointerEvents=1;fontSize=16;" parent="GPvEqlQ-Z8Nt9TGlk1Vn-178" vertex="1">
          <mxGeometry x="167" width="166" height="60" as="geometry">
            <mxRectangle width="166" height="60" as="alternateBounds" />
          </mxGeometry>
        </mxCell>
        <mxCell id="GPvEqlQ-Z8Nt9TGlk1Vn-181" value="" style="shape=partialRectangle;html=1;whiteSpace=wrap;connectable=0;strokeColor=inherit;overflow=hidden;fillColor=none;top=0;left=0;bottom=0;right=0;pointerEvents=1;fontSize=16;" parent="GPvEqlQ-Z8Nt9TGlk1Vn-178" vertex="1">
          <mxGeometry x="333" width="167" height="60" as="geometry">
            <mxRectangle width="167" height="60" as="alternateBounds" />
          </mxGeometry>
        </mxCell>
        <mxCell id="GPvEqlQ-Z8Nt9TGlk1Vn-203" value="" style="shape=table;startSize=0;container=1;collapsible=0;childLayout=tableLayout;fontSize=16;" parent="1" vertex="1">
          <mxGeometry x="40" y="230" width="470" height="67" as="geometry" />
        </mxCell>
        <mxCell id="GPvEqlQ-Z8Nt9TGlk1Vn-204" value="" style="shape=tableRow;horizontal=0;startSize=0;swimlaneHead=0;swimlaneBody=0;strokeColor=inherit;top=0;left=0;bottom=0;right=0;collapsible=0;dropTarget=0;fillColor=none;points=[[0,0.5],[1,0.5]];portConstraint=eastwest;fontSize=16;" parent="GPvEqlQ-Z8Nt9TGlk1Vn-203" vertex="1">
          <mxGeometry width="470" height="33" as="geometry" />
        </mxCell>
        <mxCell id="GPvEqlQ-Z8Nt9TGlk1Vn-205" value="# Students" style="shape=partialRectangle;html=1;whiteSpace=wrap;connectable=0;strokeColor=inherit;overflow=hidden;fillColor=none;top=0;left=0;bottom=0;right=0;pointerEvents=1;fontSize=16;" parent="GPvEqlQ-Z8Nt9TGlk1Vn-204" vertex="1">
          <mxGeometry width="118" height="33" as="geometry">
            <mxRectangle width="118" height="33" as="alternateBounds" />
          </mxGeometry>
        </mxCell>
        <mxCell id="GPvEqlQ-Z8Nt9TGlk1Vn-206" value="# Sections" style="shape=partialRectangle;html=1;whiteSpace=wrap;connectable=0;strokeColor=inherit;overflow=hidden;fillColor=none;top=0;left=0;bottom=0;right=0;pointerEvents=1;fontSize=16;" parent="GPvEqlQ-Z8Nt9TGlk1Vn-204" vertex="1">
          <mxGeometry x="118" width="117" height="33" as="geometry">
            <mxRectangle width="117" height="33" as="alternateBounds" />
          </mxGeometry>
        </mxCell>
        <mxCell id="GPvEqlQ-Z8Nt9TGlk1Vn-207" value="# Enrollments" style="shape=partialRectangle;html=1;whiteSpace=wrap;connectable=0;strokeColor=inherit;overflow=hidden;fillColor=none;top=0;left=0;bottom=0;right=0;pointerEvents=1;fontSize=16;" parent="GPvEqlQ-Z8Nt9TGlk1Vn-204" vertex="1">
          <mxGeometry x="235" width="117" height="33" as="geometry">
            <mxRectangle width="117" height="33" as="alternateBounds" />
          </mxGeometry>
        </mxCell>
        <mxCell id="GPvEqlQ-Z8Nt9TGlk1Vn-245" value="# Absences" style="shape=partialRectangle;html=1;whiteSpace=wrap;connectable=0;strokeColor=inherit;overflow=hidden;fillColor=none;top=0;left=0;bottom=0;right=0;pointerEvents=1;fontSize=16;" parent="GPvEqlQ-Z8Nt9TGlk1Vn-204" vertex="1">
          <mxGeometry x="352" width="118" height="33" as="geometry">
            <mxRectangle width="118" height="33" as="alternateBounds" />
          </mxGeometry>
        </mxCell>
        <mxCell id="GPvEqlQ-Z8Nt9TGlk1Vn-208" value="" style="shape=tableRow;horizontal=0;startSize=0;swimlaneHead=0;swimlaneBody=0;strokeColor=inherit;top=0;left=0;bottom=0;right=0;collapsible=0;dropTarget=0;fillColor=none;points=[[0,0.5],[1,0.5]];portConstraint=eastwest;fontSize=16;" parent="GPvEqlQ-Z8Nt9TGlk1Vn-203" vertex="1">
          <mxGeometry y="33" width="470" height="34" as="geometry" />
        </mxCell>
        <mxCell id="GPvEqlQ-Z8Nt9TGlk1Vn-209" value="25" style="shape=partialRectangle;html=1;whiteSpace=wrap;connectable=0;strokeColor=inherit;overflow=hidden;fillColor=none;top=0;left=0;bottom=0;right=0;pointerEvents=1;fontSize=16;" parent="GPvEqlQ-Z8Nt9TGlk1Vn-208" vertex="1">
          <mxGeometry width="118" height="34" as="geometry">
            <mxRectangle width="118" height="34" as="alternateBounds" />
          </mxGeometry>
        </mxCell>
        <mxCell id="GPvEqlQ-Z8Nt9TGlk1Vn-210" value="164" style="shape=partialRectangle;html=1;whiteSpace=wrap;connectable=0;strokeColor=inherit;overflow=hidden;fillColor=none;top=0;left=0;bottom=0;right=0;pointerEvents=1;fontSize=16;" parent="GPvEqlQ-Z8Nt9TGlk1Vn-208" vertex="1">
          <mxGeometry x="118" width="117" height="34" as="geometry">
            <mxRectangle width="117" height="34" as="alternateBounds" />
          </mxGeometry>
        </mxCell>
        <mxCell id="GPvEqlQ-Z8Nt9TGlk1Vn-211" value="259" style="shape=partialRectangle;html=1;whiteSpace=wrap;connectable=0;strokeColor=inherit;overflow=hidden;fillColor=none;top=0;left=0;bottom=0;right=0;pointerEvents=1;fontSize=16;" parent="GPvEqlQ-Z8Nt9TGlk1Vn-208" vertex="1">
          <mxGeometry x="235" width="117" height="34" as="geometry">
            <mxRectangle width="117" height="34" as="alternateBounds" />
          </mxGeometry>
        </mxCell>
        <mxCell id="GPvEqlQ-Z8Nt9TGlk1Vn-246" value="108" style="shape=partialRectangle;html=1;whiteSpace=wrap;connectable=0;strokeColor=inherit;overflow=hidden;fillColor=none;top=0;left=0;bottom=0;right=0;pointerEvents=1;fontSize=16;" parent="GPvEqlQ-Z8Nt9TGlk1Vn-208" vertex="1">
          <mxGeometry x="352" width="118" height="34" as="geometry">
            <mxRectangle width="118" height="34" as="alternateBounds" />
          </mxGeometry>
        </mxCell>
        <mxCell id="GPvEqlQ-Z8Nt9TGlk1Vn-216" value="Details" style="html=1;shadow=0;dashed=0;shape=mxgraph.bootstrap.rrect;rSize=5;strokeColor=none;strokeWidth=1;fillColor=none;fontColor=#0085FC;whiteSpace=wrap;align=center;verticalAlign=middle;spacingLeft=0;fontStyle=0;fontSize=16;spacing=5;" parent="1" vertex="1">
          <mxGeometry x="510" y="257" width="60" height="40" as="geometry" />
        </mxCell>
        <mxCell id="GPvEqlQ-Z8Nt9TGlk1Vn-217" value="" style="shape=table;startSize=0;container=1;collapsible=0;childLayout=tableLayout;fontSize=16;" parent="1" vertex="1">
          <mxGeometry x="40" y="364" width="470" height="80" as="geometry" />
        </mxCell>
        <mxCell id="GPvEqlQ-Z8Nt9TGlk1Vn-218" value="" style="shape=tableRow;horizontal=0;startSize=0;swimlaneHead=0;swimlaneBody=0;strokeColor=inherit;top=0;left=0;bottom=0;right=0;collapsible=0;dropTarget=0;fillColor=none;points=[[0,0.5],[1,0.5]];portConstraint=eastwest;fontSize=16;" parent="GPvEqlQ-Z8Nt9TGlk1Vn-217" vertex="1">
          <mxGeometry width="470" height="40" as="geometry" />
        </mxCell>
        <mxCell id="GPvEqlQ-Z8Nt9TGlk1Vn-219" value="Min Rating" style="shape=partialRectangle;html=1;whiteSpace=wrap;connectable=0;strokeColor=inherit;overflow=hidden;fillColor=none;top=0;left=0;bottom=0;right=0;pointerEvents=1;fontSize=16;" parent="GPvEqlQ-Z8Nt9TGlk1Vn-218" vertex="1">
          <mxGeometry width="157" height="40" as="geometry">
            <mxRectangle width="157" height="40" as="alternateBounds" />
          </mxGeometry>
        </mxCell>
        <mxCell id="GPvEqlQ-Z8Nt9TGlk1Vn-220" value="Avg Rating" style="shape=partialRectangle;html=1;whiteSpace=wrap;connectable=0;strokeColor=inherit;overflow=hidden;fillColor=none;top=0;left=0;bottom=0;right=0;pointerEvents=1;fontSize=16;" parent="GPvEqlQ-Z8Nt9TGlk1Vn-218" vertex="1">
          <mxGeometry x="157" width="156" height="40" as="geometry">
            <mxRectangle width="156" height="40" as="alternateBounds" />
          </mxGeometry>
        </mxCell>
        <mxCell id="GPvEqlQ-Z8Nt9TGlk1Vn-221" value="Max Rating" style="shape=partialRectangle;html=1;whiteSpace=wrap;connectable=0;strokeColor=inherit;overflow=hidden;fillColor=none;top=0;left=0;bottom=0;right=0;pointerEvents=1;fontSize=16;" parent="GPvEqlQ-Z8Nt9TGlk1Vn-218" vertex="1">
          <mxGeometry x="313" width="157" height="40" as="geometry">
            <mxRectangle width="157" height="40" as="alternateBounds" />
          </mxGeometry>
        </mxCell>
        <mxCell id="GPvEqlQ-Z8Nt9TGlk1Vn-222" value="" style="shape=tableRow;horizontal=0;startSize=0;swimlaneHead=0;swimlaneBody=0;strokeColor=inherit;top=0;left=0;bottom=0;right=0;collapsible=0;dropTarget=0;fillColor=none;points=[[0,0.5],[1,0.5]];portConstraint=eastwest;fontSize=16;" parent="GPvEqlQ-Z8Nt9TGlk1Vn-217" vertex="1">
          <mxGeometry y="40" width="470" height="40" as="geometry" />
        </mxCell>
        <mxCell id="GPvEqlQ-Z8Nt9TGlk1Vn-223" value="49" style="shape=partialRectangle;html=1;whiteSpace=wrap;connectable=0;strokeColor=inherit;overflow=hidden;fillColor=none;top=0;left=0;bottom=0;right=0;pointerEvents=1;fontSize=16;" parent="GPvEqlQ-Z8Nt9TGlk1Vn-222" vertex="1">
          <mxGeometry width="157" height="40" as="geometry">
            <mxRectangle width="157" height="40" as="alternateBounds" />
          </mxGeometry>
        </mxCell>
        <mxCell id="GPvEqlQ-Z8Nt9TGlk1Vn-224" value="73" style="shape=partialRectangle;html=1;whiteSpace=wrap;connectable=0;strokeColor=inherit;overflow=hidden;fillColor=none;top=0;left=0;bottom=0;right=0;pointerEvents=1;fontSize=16;" parent="GPvEqlQ-Z8Nt9TGlk1Vn-222" vertex="1">
          <mxGeometry x="157" width="156" height="40" as="geometry">
            <mxRectangle width="156" height="40" as="alternateBounds" />
          </mxGeometry>
        </mxCell>
        <mxCell id="GPvEqlQ-Z8Nt9TGlk1Vn-225" value="98" style="shape=partialRectangle;html=1;whiteSpace=wrap;connectable=0;strokeColor=inherit;overflow=hidden;fillColor=none;top=0;left=0;bottom=0;right=0;pointerEvents=1;fontSize=16;" parent="GPvEqlQ-Z8Nt9TGlk1Vn-222" vertex="1">
          <mxGeometry x="313" width="157" height="40" as="geometry">
            <mxRectangle width="157" height="40" as="alternateBounds" />
          </mxGeometry>
        </mxCell>
        <mxCell id="GPvEqlQ-Z8Nt9TGlk1Vn-230" value="Weaknesses" style="shape=table;startSize=60;container=1;collapsible=0;childLayout=tableLayout;strokeColor=#36393d;fontSize=20;fontStyle=1;fillColor=#cce5ff;" parent="1" vertex="1">
          <mxGeometry x="40" y="476" width="470" height="34" as="geometry" />
        </mxCell>
        <mxCell id="GPvEqlQ-Z8Nt9TGlk1Vn-231" value="" style="shape=tableRow;horizontal=0;startSize=0;swimlaneHead=0;swimlaneBody=0;strokeColor=inherit;top=0;left=0;bottom=0;right=0;collapsible=0;dropTarget=0;fillColor=none;points=[[0,0.5],[1,0.5]];portConstraint=eastwest;fontSize=16;" parent="GPvEqlQ-Z8Nt9TGlk1Vn-230" vertex="1" visible="0">
          <mxGeometry y="30" width="470" height="30" as="geometry" />
        </mxCell>
        <mxCell id="GPvEqlQ-Z8Nt9TGlk1Vn-232" value="&lt;b&gt;Power&lt;/b&gt;" style="shape=partialRectangle;html=1;whiteSpace=wrap;connectable=0;strokeColor=#36393d;overflow=hidden;fillColor=#cce5ff;top=0;left=0;bottom=0;right=0;pointerEvents=1;fontSize=16;" parent="GPvEqlQ-Z8Nt9TGlk1Vn-231" vertex="1">
          <mxGeometry width="20" height="30" as="geometry">
            <mxRectangle width="20" height="30" as="alternateBounds" />
          </mxGeometry>
        </mxCell>
        <mxCell id="GPvEqlQ-Z8Nt9TGlk1Vn-233" value="&lt;b&gt;Min Rating&lt;/b&gt;" style="shape=partialRectangle;html=1;whiteSpace=wrap;connectable=0;strokeColor=#36393d;overflow=hidden;fillColor=#cce5ff;top=0;left=0;bottom=0;right=0;pointerEvents=1;fontSize=16;" parent="GPvEqlQ-Z8Nt9TGlk1Vn-231" vertex="1">
          <mxGeometry x="20" width="260" height="30" as="geometry">
            <mxRectangle width="260" height="30" as="alternateBounds" />
          </mxGeometry>
        </mxCell>
        <mxCell id="GPvEqlQ-Z8Nt9TGlk1Vn-234" value="&lt;b&gt;Avg Rating&lt;/b&gt;" style="shape=partialRectangle;html=1;whiteSpace=wrap;connectable=0;strokeColor=#36393d;overflow=hidden;fillColor=#cce5ff;top=0;left=0;bottom=0;right=0;pointerEvents=1;fontSize=16;" parent="GPvEqlQ-Z8Nt9TGlk1Vn-231" vertex="1">
          <mxGeometry x="280" width="100" height="30" as="geometry">
            <mxRectangle width="100" height="30" as="alternateBounds" />
          </mxGeometry>
        </mxCell>
        <mxCell id="GPvEqlQ-Z8Nt9TGlk1Vn-235" value="&lt;b&gt;Max Rating&lt;/b&gt;" style="shape=partialRectangle;html=1;whiteSpace=wrap;connectable=0;strokeColor=#36393d;overflow=hidden;fillColor=#cce5ff;top=0;left=0;bottom=0;right=0;pointerEvents=1;fontSize=16;" parent="GPvEqlQ-Z8Nt9TGlk1Vn-231" vertex="1">
          <mxGeometry x="380" width="90" height="30" as="geometry">
            <mxRectangle width="90" height="30" as="alternateBounds" />
          </mxGeometry>
        </mxCell>
        <mxCell id="GPvEqlQ-Z8Nt9TGlk1Vn-236" value="" style="shape=table;startSize=0;container=1;collapsible=0;childLayout=tableLayout;fontSize=16;" parent="1" vertex="1">
          <mxGeometry x="40" y="510" width="470" height="80" as="geometry" />
        </mxCell>
        <mxCell id="GPvEqlQ-Z8Nt9TGlk1Vn-237" value="" style="shape=tableRow;horizontal=0;startSize=0;swimlaneHead=0;swimlaneBody=0;strokeColor=inherit;top=0;left=0;bottom=0;right=0;collapsible=0;dropTarget=0;fillColor=none;points=[[0,0.5],[1,0.5]];portConstraint=eastwest;fontSize=16;" parent="GPvEqlQ-Z8Nt9TGlk1Vn-236" vertex="1">
          <mxGeometry width="470" height="40" as="geometry" />
        </mxCell>
        <mxCell id="GPvEqlQ-Z8Nt9TGlk1Vn-238" value="Min Risk" style="shape=partialRectangle;html=1;whiteSpace=wrap;connectable=0;strokeColor=inherit;overflow=hidden;fillColor=none;top=0;left=0;bottom=0;right=0;pointerEvents=1;fontSize=16;" parent="GPvEqlQ-Z8Nt9TGlk1Vn-237" vertex="1">
          <mxGeometry width="157" height="40" as="geometry">
            <mxRectangle width="157" height="40" as="alternateBounds" />
          </mxGeometry>
        </mxCell>
        <mxCell id="GPvEqlQ-Z8Nt9TGlk1Vn-239" value="Avg Risk" style="shape=partialRectangle;html=1;whiteSpace=wrap;connectable=0;strokeColor=inherit;overflow=hidden;fillColor=none;top=0;left=0;bottom=0;right=0;pointerEvents=1;fontSize=16;" parent="GPvEqlQ-Z8Nt9TGlk1Vn-237" vertex="1">
          <mxGeometry x="157" width="156" height="40" as="geometry">
            <mxRectangle width="156" height="40" as="alternateBounds" />
          </mxGeometry>
        </mxCell>
        <mxCell id="GPvEqlQ-Z8Nt9TGlk1Vn-240" value="Max Risk" style="shape=partialRectangle;html=1;whiteSpace=wrap;connectable=0;strokeColor=inherit;overflow=hidden;fillColor=none;top=0;left=0;bottom=0;right=0;pointerEvents=1;fontSize=16;" parent="GPvEqlQ-Z8Nt9TGlk1Vn-237" vertex="1">
          <mxGeometry x="313" width="157" height="40" as="geometry">
            <mxRectangle width="157" height="40" as="alternateBounds" />
          </mxGeometry>
        </mxCell>
        <mxCell id="GPvEqlQ-Z8Nt9TGlk1Vn-241" value="" style="shape=tableRow;horizontal=0;startSize=0;swimlaneHead=0;swimlaneBody=0;strokeColor=inherit;top=0;left=0;bottom=0;right=0;collapsible=0;dropTarget=0;fillColor=none;points=[[0,0.5],[1,0.5]];portConstraint=eastwest;fontSize=16;" parent="GPvEqlQ-Z8Nt9TGlk1Vn-236" vertex="1">
          <mxGeometry y="40" width="470" height="40" as="geometry" />
        </mxCell>
        <mxCell id="GPvEqlQ-Z8Nt9TGlk1Vn-242" value="2" style="shape=partialRectangle;html=1;whiteSpace=wrap;connectable=0;strokeColor=inherit;overflow=hidden;fillColor=none;top=0;left=0;bottom=0;right=0;pointerEvents=1;fontSize=16;" parent="GPvEqlQ-Z8Nt9TGlk1Vn-241" vertex="1">
          <mxGeometry width="157" height="40" as="geometry">
            <mxRectangle width="157" height="40" as="alternateBounds" />
          </mxGeometry>
        </mxCell>
        <mxCell id="GPvEqlQ-Z8Nt9TGlk1Vn-243" value="4" style="shape=partialRectangle;html=1;whiteSpace=wrap;connectable=0;strokeColor=inherit;overflow=hidden;fillColor=none;top=0;left=0;bottom=0;right=0;pointerEvents=1;fontSize=16;" parent="GPvEqlQ-Z8Nt9TGlk1Vn-241" vertex="1">
          <mxGeometry x="157" width="156" height="40" as="geometry">
            <mxRectangle width="156" height="40" as="alternateBounds" />
          </mxGeometry>
        </mxCell>
        <mxCell id="GPvEqlQ-Z8Nt9TGlk1Vn-244" value="8" style="shape=partialRectangle;html=1;whiteSpace=wrap;connectable=0;strokeColor=inherit;overflow=hidden;fillColor=none;top=0;left=0;bottom=0;right=0;pointerEvents=1;fontSize=16;" parent="GPvEqlQ-Z8Nt9TGlk1Vn-241" vertex="1">
          <mxGeometry x="313" width="157" height="40" as="geometry">
            <mxRectangle width="157" height="40" as="alternateBounds" />
          </mxGeometry>
        </mxCell>
      </root>
    </mxGraphModel>
  </diagram>
</mxfile>
